<svg width="40" height="40" viewBox="0 0 40 40" fill="none" xmlns="http://www.w3.org/2000/svg">
<path d="M11 18.995C11 14.4517 11 12.18 12.405 10.7683C13.8117 9.35666 16.0733 9.35666 20.6 9.35666H25.4C29.925 9.35666 32.1883 9.35666 33.5933 10.7683C35 12.18 35 14.4517 35 18.995V27.0283C35 31.5717 35 33.8433 33.5933 35.255C32.1883 36.6667 29.925 36.6667 25.4 36.6667H20.6C16.0733 36.6667 13.8117 36.6667 12.405 35.255C11 33.8433 11 31.5717 11 27.0283V18.995Z" fill="#3A3A3A"/>
<path opacity="0.5" d="M6.95333 5.28668C5 7.23834 5 10.3817 5 16.6667V20C5 26.285 5 29.4283 6.95333 31.38C7.98167 32.41 9.34167 32.8967 11.32 33.1267C11 31.7267 11 29.8 11 27.0267V18.995C11 14.4517 11 12.18 12.405 10.7683C13.8117 9.35668 16.0733 9.35668 20.6 9.35668H25.4C28.1533 9.35668 30.0667 9.35668 31.4633 9.67334C31.2333 7.68501 30.7467 6.32001 29.7133 5.28668C27.7617 3.33334 24.6183 3.33334 18.3333 3.33334C12.0483 3.33334 8.905 3.33334 6.95333 5.28668Z" fill="#3A3A3A"/>
</svg>
